# xmcd
#
# Track frame offsets: 
#        150
#        14687
#        32782
#        51167
#        68002
#        87737
#        103935
#        114277
#        138040
#        159900
#        179492
#        204530
#        219215
#        240017
#        256122
#
# Disc length: 3663 seconds
#
# Revision: 0
# Processed by: cddbd v1.5.1PL0 Copyright (c) Steve Scherf et al.
# Submitted via: ExactAudioCopy v0.95b1
#
DISCID=c30e4d0f
DTITLE=Bob Dylan - The French Girl [CD1]
DYEAR=1987
DGENRE=
TTITLE0=The Times They Are A-Changin'
TTITLE1=When I Paint My Masterpiece
TTITLE2=Man Of Peace
TTITLE3=I'll Be Your Baby Tonight
TTITLE4=The Ballad Of Ira Hayes
TTITLE5=I Want You
TTITLE6=Ballad Of A Thin Man
TTITLE7=Memphis Blues Again
TTITLE8=Dead Man Dead Man
TTITLE9=Queen Jane Approximately
TTITLE10=The Boy In The Bubble
TTITLE11=The French Girl
TTITLE12=In The Summertime
TTITLE13=Man Of Peace
TTITLE14=Union Sundown
EXTD=
EXTT0=
EXTT1=
EXTT2=
EXTT3=
EXTT4=
EXTT5=
EXTT6=
EXTT7=
EXTT8=
EXTT9=
EXTT10=
EXTT11=
EXTT12=
EXTT13=
EXTT14=
PLAYORDER=
